<mxfile host="65bd71144e">
    <diagram id="ExbnudLMfO_WVAHQ6NZ6" name="Page-1">
        <mxGraphModel dx="1074" dy="757" grid="1" gridSize="10" guides="1" tooltips="1" connect="1" arrows="1" fold="1" page="1" pageScale="1" pageWidth="850" pageHeight="1100" math="0" shadow="0">
            <root>
                <mxCell id="0"/>
                <mxCell id="1" parent="0"/>
                <mxCell id="27" value="" style="rounded=0;whiteSpace=wrap;html=1;labelBackgroundColor=none;fillColor=#cce5ff;strokeColor=#36393d;" parent="1" vertex="1">
                    <mxGeometry x="15" y="110" width="820" height="350" as="geometry"/>
                </mxCell>
                <mxCell id="14" value="" style="rounded=1;whiteSpace=wrap;html=1;fillColor=none;strokeColor=#000000;strokeWidth=2;fontColor=#000000;" parent="1" vertex="1">
                    <mxGeometry x="240" y="285.99" width="310" height="130" as="geometry"/>
                </mxCell>
                <mxCell id="16" style="edgeStyle=none;html=1;fontColor=#000000;strokeColor=#000000;" parent="1" source="6" target="10" edge="1">
                    <mxGeometry relative="1" as="geometry"/>
                </mxCell>
                <mxCell id="18" style="edgeStyle=none;html=1;entryX=0.55;entryY=0.95;entryDx=0;entryDy=0;entryPerimeter=0;fontColor=#000000;strokeColor=#000000;" parent="1" source="6" target="12" edge="1">
                    <mxGeometry relative="1" as="geometry">
                        <Array as="points">
                            <mxPoint x="150" y="290"/>
                        </Array>
                    </mxGeometry>
                </mxCell>
                <mxCell id="6" value="Extract Data" style="verticalLabelPosition=bottom;sketch=0;aspect=fixed;html=1;verticalAlign=top;strokeColor=none;align=center;outlineConnect=0;shape=mxgraph.citrix.process;fontColor=#000000;" parent="1" vertex="1">
                    <mxGeometry x="280" y="319.99" width="52" height="62" as="geometry"/>
                </mxCell>
                <mxCell id="7" value="&lt;font&gt;PostgreSQL&lt;br&gt;Database&lt;/font&gt;" style="verticalLabelPosition=bottom;sketch=0;aspect=fixed;html=1;verticalAlign=top;strokeColor=none;align=center;outlineConnect=0;shape=mxgraph.citrix.database;fontColor=#000000;" parent="1" vertex="1">
                    <mxGeometry x="670" y="308.35" width="72.5" height="85.29" as="geometry"/>
                </mxCell>
                <mxCell id="15" style="edgeStyle=none;html=1;fontColor=#000000;strokeColor=#000000;" parent="1" source="10" target="7" edge="1">
                    <mxGeometry relative="1" as="geometry"/>
                </mxCell>
                <mxCell id="10" value="Transform" style="verticalLabelPosition=bottom;sketch=0;aspect=fixed;html=1;verticalAlign=top;strokeColor=none;align=center;outlineConnect=0;shape=mxgraph.citrix.process;fontColor=#000000;" parent="1" vertex="1">
                    <mxGeometry x="390" y="319.99" width="52" height="62" as="geometry"/>
                </mxCell>
                <mxCell id="17" style="edgeStyle=none;html=1;fontColor=#000000;strokeColor=#000000;" parent="1" source="12" target="6" edge="1">
                    <mxGeometry relative="1" as="geometry">
                        <Array as="points">
                            <mxPoint x="190" y="270"/>
                        </Array>
                    </mxGeometry>
                </mxCell>
                <mxCell id="12" value="API" style="ellipse;shape=cloud;whiteSpace=wrap;html=1;fillColor=none;strokeWidth=2;strokeColor=#000000;fontColor=#000000;" parent="1" vertex="1">
                    <mxGeometry x="50" y="170" width="120" height="80" as="geometry"/>
                </mxCell>
                <mxCell id="21" value="Load" style="text;html=1;strokeColor=none;fillColor=none;align=center;verticalAlign=middle;whiteSpace=wrap;rounded=0;fontColor=#000000;" parent="1" vertex="1">
                    <mxGeometry x="450" y="329.99" width="60" height="30" as="geometry"/>
                </mxCell>
                <mxCell id="34" value="&lt;b&gt;&lt;font style=&quot;font-size: 16px&quot;&gt;&lt;u&gt;CoinCap ETL Project&lt;/u&gt;&lt;/font&gt;&lt;/b&gt;" style="text;html=1;strokeColor=none;fillColor=none;align=center;verticalAlign=middle;whiteSpace=wrap;rounded=0;labelBackgroundColor=none;fontColor=#000000;" parent="1" vertex="1">
                    <mxGeometry x="255" y="120" width="330" height="30" as="geometry"/>
                </mxCell>
                <mxCell id="35" value="&lt;font style=&quot;font-size: 15px&quot;&gt;&lt;b&gt;Job to run every 5 mins&lt;/b&gt;&lt;/font&gt;" style="text;html=1;strokeColor=none;fillColor=none;align=center;verticalAlign=middle;whiteSpace=wrap;rounded=0;labelBackgroundColor=none;fontSize=16;fontColor=#000000;" parent="1" vertex="1">
                    <mxGeometry x="290" y="285.99" width="210" height="30" as="geometry"/>
                </mxCell>
            </root>
        </mxGraphModel>
    </diagram>
</mxfile>